<?xml version="1.0" encoding="UTF-8" standalone="no"?>
<!-- Created with Inkscape (http://www.inkscape.org/) -->

<svg
   xmlns:dc="http://purl.org/dc/elements/1.1/"
   xmlns:cc="http://creativecommons.org/ns#"
   xmlns:rdf="http://www.w3.org/1999/02/22-rdf-syntax-ns#"
   xmlns:svg="http://www.w3.org/2000/svg"
   xmlns="http://www.w3.org/2000/svg"
   xmlns:xlink="http://www.w3.org/1999/xlink"
   xmlns:sodipodi="http://sodipodi.sourceforge.net/DTD/sodipodi-0.dtd"
   xmlns:inkscape="http://www.inkscape.org/namespaces/inkscape"
   width="121.97449mm"
   height="43.31271mm"
   viewBox="0 0 121.97449 43.31271"
   version="1.1"
   id="svg2927"
   inkscape:version="0.92.3 (2405546, 2018-03-11)"
   sodipodi:docname="client-server.svg">
  <defs
     id="defs2921">
    <marker
       inkscape:stockid="ExperimentalArrow"
       orient="auto-start-reverse"
       refY="3"
       refX="5"
       id="ExperimentalArrow"
       inkscape:isstock="true">
      <path
         id="path4553"
         d="M 10,3 0,6 V 0 Z"
         style="fill:context-stroke;stroke:#000000;stroke-opacity:1"
         inkscape:connector-curvature="0" />
    </marker>
    <marker
       inkscape:stockid="SemiCircleOut"
       orient="auto"
       refY="0"
       refX="0"
       id="SemiCircleOut"
       style="overflow:visible"
       inkscape:isstock="true">
      <path
         id="path4481"
         d="m -2.5,-0.80913858 c 0,2.75999998 -2.24,4.99999998 -5,4.99999998 v -10 c 2.76,0 5,2.24 5,5.00000002 z"
         style="fill:#000000;fill-opacity:1;fill-rule:evenodd;stroke:#000000;stroke-width:1.00000003pt;stroke-opacity:1"
         transform="matrix(0.6,0,0,0.6,4.2752958,0.4580676)"
         inkscape:connector-curvature="0" />
    </marker>
    <marker
       inkscape:stockid="CurveOut"
       orient="auto"
       refY="0"
       refX="0"
       id="CurveOut"
       style="overflow:visible"
       inkscape:isstock="true">
      <path
         id="path4487"
         d="m -5.4129913,-5.0456926 c 2.76,0 4.99999999,2.24 4.99999999,5.00000002 0,2.75999998 -2.23999999,4.99999998 -4.99999999,4.99999998"
         style="fill:none;fill-rule:evenodd;stroke:#000000;stroke-width:1.00000003pt;stroke-opacity:1"
         transform="scale(0.6)"
         inkscape:connector-curvature="0" />
    </marker>
    <marker
       inkscape:stockid="Arrow1Mend"
       orient="auto"
       refY="0"
       refX="0"
       id="Arrow1Mend"
       style="overflow:visible"
       inkscape:isstock="true">
      <path
         id="path4309"
         d="M 0,0 5,-5 -12.5,0 5,5 Z"
         style="fill:#000000;fill-opacity:1;fill-rule:evenodd;stroke:#000000;stroke-width:1.00000003pt;stroke-opacity:1"
         transform="matrix(-0.4,0,0,-0.4,-4,0)"
         inkscape:connector-curvature="0" />
    </marker>
    <marker
       inkscape:stockid="Arrow2Lend"
       orient="auto"
       refY="0"
       refX="0"
       id="Arrow2Lend"
       style="overflow:visible"
       inkscape:isstock="true">
      <path
         id="path4321"
         style="fill:#ec6630;fill-opacity:1;fill-rule:evenodd;stroke:#ec6630;stroke-width:0.625;stroke-linejoin:round;stroke-opacity:1"
         d="M 8.7185878,4.0337352 -2.2072895,0.01601326 8.7185884,-4.0017078 c -1.7454984,2.3720609 -1.7354408,5.6174519 -6e-7,8.035443 z"
         transform="matrix(-1.1,0,0,-1.1,-1.1,0)"
         inkscape:connector-curvature="0" />
    </marker>
    <linearGradient
       id="linearGradient4737"
       inkscape:collect="always">
      <stop
         id="stop4733"
         offset="0"
         style="stop-color:#666666;stop-opacity:1;" />
      <stop
         id="stop4735"
         offset="1"
         style="stop-color:#b3b3b3;stop-opacity:1" />
    </linearGradient>
    <marker
       inkscape:isstock="true"
       style="overflow:visible"
       id="Arrow1Lstart"
       refX="0"
       refY="0"
       orient="auto"
       inkscape:stockid="Arrow1Lstart">
      <path
         transform="matrix(0.8,0,0,0.8,10,0)"
         style="fill-rule:evenodd;stroke:#000000;stroke-width:1.00000003pt"
         d="M 0,0 5,-5 -12.5,0 5,5 Z"
         id="path4649"
         inkscape:connector-curvature="0" />
    </marker>
    <inkscape:perspective
       id="perspective4531"
       inkscape:persp3d-origin="135.46667 : 90.311106 : 1"
       inkscape:vp_z="270.93333 : 135.46666 : 1"
       inkscape:vp_y="0 : 999.99995 : 0"
       inkscape:vp_x="-116.62555 : 40.425551 : 1"
       sodipodi:type="inkscape:persp3d" />
    <radialGradient
       gradientUnits="userSpaceOnUse"
       gradientTransform="matrix(-1.3955109,1.5400496,-1.6616176,-1.5397362,326.51325,-220.09139)"
       r="110.06358"
       fy="0.89891279"
       fx="135.77303"
       cy="0.89891279"
       cx="135.77303"
       id="radialGradient4528"
       xlink:href="#linearGradient4522"
       inkscape:collect="always" />
    <linearGradient
       id="linearGradient4522"
       inkscape:collect="always">
      <stop
         id="stop4518"
         offset="0"
         style="stop-color:#000000;stop-opacity:1;" />
      <stop
         style="stop-color:#000000;stop-opacity:0.74901961;"
         offset="0.08821987"
         id="stop4526" />
      <stop
         style="stop-color:#000000;stop-opacity:0.49803922;"
         offset="0.50174522"
         id="stop4524" />
      <stop
         id="stop4520"
         offset="1"
         style="stop-color:#000000;stop-opacity:0;" />
    </linearGradient>
    <linearGradient
       gradientUnits="userSpaceOnUse"
       y2="188.58969"
       x2="146.82983"
       y1="188.19785"
       x1="123.51574"
       id="linearGradient4741"
       xlink:href="#linearGradient4737"
       inkscape:collect="always" />
    <inkscape:perspective
       id="perspective3080"
       inkscape:persp3d-origin="372.04724 : 350.78737 : 1"
       inkscape:vp_z="744.09449 : 526.18107 : 1"
       inkscape:vp_y="0 : 999.99995 : 0"
       inkscape:vp_x="0 : 526.18107 : 1"
       sodipodi:type="inkscape:persp3d" />
    <inkscape:perspective
       sodipodi:type="inkscape:persp3d"
       inkscape:vp_x="0 : 0.49999998 : 1"
       inkscape:vp_y="0 : 999.99995 : 0"
       inkscape:vp_z="1 : 0.49999998 : 1"
       inkscape:persp3d-origin="0.50000001 : 0.33333331 : 1"
       id="perspective3009" />
    <filter
       id="filter6456"
       inkscape:collect="always"
       style="color-interpolation-filters:sRGB">
      <feGaussianBlur
         id="feGaussianBlur6458"
         stdDeviation="3.8242965"
         inkscape:collect="always" />
    </filter>
    <radialGradient
       gradientUnits="userSpaceOnUse"
       gradientTransform="matrix(1.2660772,-0.13911923,0.09974831,0.90777578,-112.96025,81.976864)"
       r="146.59373"
       fy="394.63815"
       fx="254.24759"
       cy="394.63815"
       cx="254.24759"
       id="radialGradient6368"
       xlink:href="#linearGradient6362"
       inkscape:collect="always" />
    <linearGradient
       id="linearGradient6362">
      <stop
         id="stop6364"
         offset="0"
         style="stop-color:#f9feff;stop-opacity:1;" />
      <stop
         style="stop-color:#d3e7f0;stop-opacity:1;"
         offset="0.7638889"
         id="stop6454" />
      <stop
         id="stop6366"
         offset="1"
         style="stop-color:#7e96ac;stop-opacity:1;" />
    </linearGradient>
    <linearGradient
       gradientUnits="userSpaceOnUse"
       y2="328.36057"
       x2="229.2977"
       y1="557.76581"
       x1="273.47086"
       id="linearGradient6474"
       xlink:href="#linearGradient6468"
       inkscape:collect="always" />
    <linearGradient
       id="linearGradient6468">
      <stop
         id="stop6470"
         offset="0"
         style="stop-color:#9aaebb;stop-opacity:1;" />
      <stop
         id="stop6472"
         offset="1"
         style="stop-color:#9aaebb;stop-opacity:0.18584071;" />
    </linearGradient>
    <radialGradient
       r="63.57798"
       fy="672.90088"
       fx="137.3315"
       cy="672.90088"
       cx="137.3315"
       gradientTransform="matrix(1.6020408,-4.3927899e-7,3.231702e-7,1.1785946,-81.826087,-115.45275)"
       gradientUnits="userSpaceOnUse"
       id="radialGradient6396"
       xlink:href="#linearGradient6380"
       inkscape:collect="always" />
    <linearGradient
       id="linearGradient6380">
      <stop
         id="stop6382"
         offset="0"
         style="stop-color:#ffffff;stop-opacity:1;" />
      <stop
         style="stop-color:#f1f9fd;stop-opacity:1;"
         offset="0.44984567"
         id="stop3804" />
      <stop
         style="stop-color:#e3f3fb;stop-opacity:1;"
         offset="0.6111111"
         id="stop6388" />
      <stop
         id="stop6384"
         offset="1"
         style="stop-color:#728e9d;stop-opacity:1;" />
    </linearGradient>
    <filter
       id="filter6390"
       inkscape:collect="always"
       style="color-interpolation-filters:sRGB">
      <feGaussianBlur
         id="feGaussianBlur6392"
         stdDeviation="1.1742464"
         inkscape:collect="always" />
    </filter>
    <radialGradient
       gradientUnits="userSpaceOnUse"
       gradientTransform="matrix(1.6020408,-4.3927899e-7,3.231702e-7,1.1785946,-81.826087,-115.45275)"
       r="63.57798"
       fy="672.90088"
       fx="137.3315"
       cy="672.90088"
       cx="137.3315"
       id="radialGradient6386"
       xlink:href="#linearGradient6380"
       inkscape:collect="always" />
    <filter
       id="filter6488"
       inkscape:collect="always"
       style="color-interpolation-filters:sRGB">
      <feGaussianBlur
         id="feGaussianBlur6490"
         stdDeviation="2.3484927"
         inkscape:collect="always" />
    </filter>
    <radialGradient
       r="63.57798"
       fy="672.90088"
       fx="137.3315"
       cy="672.90088"
       cx="137.3315"
       gradientTransform="matrix(1.6020408,-4.3927899e-7,3.231702e-7,1.1785946,-81.826087,-115.45275)"
       gradientUnits="userSpaceOnUse"
       id="radialGradient6404"
       xlink:href="#linearGradient6380"
       inkscape:collect="always" />
    <filter
       height="1.2620056"
       y="-0.13100281"
       width="1.2219027"
       x="-0.11095136"
       id="filter6524"
       inkscape:collect="always"
       style="color-interpolation-filters:sRGB">
      <feGaussianBlur
         id="feGaussianBlur6526"
         stdDeviation="5.8783863"
         inkscape:collect="always" />
    </filter>
    <radialGradient
       r="63.57798"
       fy="672.90088"
       fx="137.3315"
       cy="672.90088"
       cx="137.3315"
       gradientTransform="matrix(1.6020408,-4.3927899e-7,3.231702e-7,1.1785946,-81.826087,-115.45275)"
       gradientUnits="userSpaceOnUse"
       id="radialGradient6416"
       xlink:href="#linearGradient6380"
       inkscape:collect="always" />
    <filter
       id="filter6496"
       inkscape:collect="always"
       style="color-interpolation-filters:sRGB">
      <feGaussianBlur
         id="feGaussianBlur6498"
         stdDeviation="2.3513545"
         inkscape:collect="always" />
    </filter>
    <radialGradient
       r="63.57798"
       fy="672.90088"
       fx="137.3315"
       cy="672.90088"
       cx="137.3315"
       gradientTransform="matrix(1.6020408,-4.3927899e-7,3.231702e-7,1.1785946,-81.826087,-115.45275)"
       gradientUnits="userSpaceOnUse"
       id="radialGradient6408"
       xlink:href="#linearGradient6380"
       inkscape:collect="always" />
    <filter
       id="filter6476"
       inkscape:collect="always"
       style="color-interpolation-filters:sRGB">
      <feGaussianBlur
         id="feGaussianBlur6478"
         stdDeviation="2.357466"
         inkscape:collect="always" />
    </filter>
    <radialGradient
       r="63.57798"
       fy="672.90088"
       fx="137.3315"
       cy="672.90088"
       cx="137.3315"
       gradientTransform="matrix(1.6020408,-4.3927899e-7,3.231702e-7,1.1785946,-81.826087,-115.45275)"
       gradientUnits="userSpaceOnUse"
       id="radialGradient6400"
       xlink:href="#linearGradient6380"
       inkscape:collect="always" />
    <filter
       height="1.2616867"
       y="-0.13084337"
       width="1.2216327"
       x="-0.11081633"
       id="filter6512"
       inkscape:collect="always"
       style="color-interpolation-filters:sRGB">
      <feGaussianBlur
         id="feGaussianBlur6514"
         stdDeviation="5.8712318"
         inkscape:collect="always" />
    </filter>
    <radialGradient
       r="63.57798"
       fy="672.90088"
       fx="137.3315"
       cy="672.90088"
       cx="137.3315"
       gradientTransform="matrix(1.6020408,-4.3927899e-7,3.231702e-7,1.1785946,-81.826087,-115.45275)"
       gradientUnits="userSpaceOnUse"
       id="radialGradient6412"
       xlink:href="#linearGradient6380"
       inkscape:collect="always" />
    <filter
       id="filter6520"
       inkscape:collect="always"
       style="color-interpolation-filters:sRGB">
      <feGaussianBlur
         id="feGaussianBlur6522"
         stdDeviation="3.5498832"
         inkscape:collect="always" />
    </filter>
    <radialGradient
       r="63.57798"
       fy="672.90088"
       fx="137.3315"
       cy="672.90088"
       cx="137.3315"
       gradientTransform="matrix(1.6020408,-4.3927899e-7,3.231702e-7,1.1785946,-81.826087,-115.45275)"
       gradientUnits="userSpaceOnUse"
       id="radialGradient6436"
       xlink:href="#linearGradient6380"
       inkscape:collect="always" />
    <filter
       id="filter6528"
       inkscape:collect="always"
       style="color-interpolation-filters:sRGB">
      <feGaussianBlur
         id="feGaussianBlur6530"
         stdDeviation="3.5258828"
         inkscape:collect="always" />
    </filter>
    <radialGradient
       r="63.57798"
       fy="672.90088"
       fx="137.3315"
       cy="672.90088"
       cx="137.3315"
       gradientTransform="matrix(1.6020408,-4.3927899e-7,3.231702e-7,1.1785946,-81.826087,-115.45275)"
       gradientUnits="userSpaceOnUse"
       id="radialGradient6440"
       xlink:href="#linearGradient6380"
       inkscape:collect="always" />
    <filter
       id="filter6504"
       inkscape:collect="always"
       style="color-interpolation-filters:sRGB">
      <feGaussianBlur
         id="feGaussianBlur6506"
         stdDeviation="3.6041679"
         inkscape:collect="always" />
    </filter>
    <radialGradient
       inkscape:collect="always"
       xlink:href="#linearGradient6380"
       id="radialGradient3825"
       gradientUnits="userSpaceOnUse"
       gradientTransform="matrix(1.6020408,-4.3927899e-7,3.231702e-7,1.1785946,-81.826087,-115.45275)"
       cx="137.3315"
       cy="672.90088"
       fx="137.3315"
       fy="672.90088"
       r="63.57798" />
  </defs>
  <sodipodi:namedview
     id="base"
     pagecolor="#ffffff"
     bordercolor="#666666"
     borderopacity="1.0"
     inkscape:pageopacity="0.0"
     inkscape:pageshadow="2"
     inkscape:zoom="2.8"
     inkscape:cx="197.59308"
     inkscape:cy="67.766531"
     inkscape:document-units="mm"
     inkscape:current-layer="layer1"
     showgrid="false"
     inkscape:window-width="3066"
     inkscape:window-height="1689"
     inkscape:window-x="134"
     inkscape:window-y="55"
     inkscape:window-maximized="1" />
  <metadata
     id="metadata2924">
    <rdf:RDF>
      <cc:Work
         rdf:about="">
        <dc:format>image/svg+xml</dc:format>
        <dc:type
           rdf:resource="http://purl.org/dc/dcmitype/StillImage" />
        <dc:title></dc:title>
      </cc:Work>
    </rdf:RDF>
  </metadata>
  <g
     inkscape:label="Layer 1"
     inkscape:groupmode="layer"
     id="layer1"
     transform="translate(-28.83826,-8.6426374)">
    <g
       style="enable-background:new"
       id="g3811"
       transform="matrix(0.16171463,0,0,0.16171463,107.13786,12.643931)">
      <g
         style="display:inline"
         inkscape:label="Calque 4"
         id="layer4">
        <path
           sodipodi:nodetypes="sssssssss"
           inkscape:connector-curvature="0"
           id="rect4647-6"
           d="m 87.425922,196.97817 c -1.258381,0.005 -3.103989,1.30946 -3.316654,2.54339 l -1.773789,10.2919 c -0.212665,1.23393 1.020092,2.26713 2.278479,2.26713 H 186.24175 c 1.25839,0 2.49771,-1.03435 2.27848,-2.26713 0,0 -1.23629,-6.95172 -1.85442,-10.42759 -0.21923,-1.23278 -1.81488,-2.79922 -3.07326,-2.79435 -32.05556,0.12404 -64.11107,0.26267 -96.166628,0.38665 z"
           style="color:#000000;font-style:normal;font-variant:normal;font-weight:normal;font-stretch:normal;font-size:medium;line-height:normal;font-family:sans-serif;font-variant-ligatures:normal;font-variant-position:normal;font-variant-caps:normal;font-variant-numeric:normal;font-variant-alternates:normal;font-feature-settings:normal;text-indent:0;text-align:start;text-decoration:none;text-decoration-line:none;text-decoration-style:solid;text-decoration-color:#000000;letter-spacing:normal;word-spacing:normal;text-transform:none;writing-mode:lr-tb;direction:ltr;text-orientation:mixed;dominant-baseline:auto;baseline-shift:baseline;text-anchor:start;white-space:normal;shape-padding:0;clip-rule:nonzero;display:inline;overflow:visible;visibility:visible;opacity:0.98999999;isolation:auto;mix-blend-mode:normal;color-interpolation:sRGB;color-interpolation-filters:linearRGB;solid-color:#000000;solid-opacity:1;vector-effect:none;fill:#808080;fill-opacity:1;fill-rule:nonzero;stroke:#808080;stroke-width:10.30200005;stroke-linecap:round;stroke-linejoin:round;stroke-miterlimit:4;stroke-dasharray:none;stroke-dashoffset:0;stroke-opacity:1;paint-order:stroke fill markers;color-rendering:auto;image-rendering:auto;shape-rendering:auto;text-rendering:auto;enable-background:accumulate" />
      </g>
      <g
         id="g4529"
         inkscape:label="Copie de Calque 4"
         style="display:inline">
        <path
           style="color:#000000;font-style:normal;font-variant:normal;font-weight:normal;font-stretch:normal;font-size:medium;line-height:normal;font-family:sans-serif;font-variant-ligatures:normal;font-variant-position:normal;font-variant-caps:normal;font-variant-numeric:normal;font-variant-alternates:normal;font-feature-settings:normal;text-indent:0;text-align:start;text-decoration:none;text-decoration-line:none;text-decoration-style:solid;text-decoration-color:#000000;letter-spacing:normal;word-spacing:normal;text-transform:none;writing-mode:lr-tb;direction:ltr;text-orientation:mixed;dominant-baseline:auto;baseline-shift:baseline;text-anchor:start;white-space:normal;shape-padding:0;clip-rule:nonzero;display:inline;overflow:visible;visibility:visible;opacity:1;isolation:auto;mix-blend-mode:normal;color-interpolation:sRGB;color-interpolation-filters:linearRGB;solid-color:#000000;solid-opacity:1;vector-effect:none;fill:#333333;fill-opacity:1;fill-rule:nonzero;stroke:#333333;stroke-width:9.41981792;stroke-linecap:round;stroke-linejoin:round;stroke-miterlimit:4;stroke-dasharray:none;stroke-dashoffset:0;stroke-opacity:1;paint-order:stroke fill markers;color-rendering:auto;image-rendering:auto;shape-rendering:auto;text-rendering:auto;enable-background:accumulate"
           d="m 87.286208,196.64185 c -1.26374,0.004 -3.117206,1.15657 -3.330776,2.24641 l -1.781344,9.09018 c -0.21357,1.08986 1.024436,2.00241 2.288182,2.00241 h 102.06056 c 1.26374,0 2.50833,-0.91357 2.28816,-2.00241 0,0 -1.24155,-6.14001 -1.8623,-9.21001 -0.22017,-1.08886 -1.8226,-2.47238 -3.08636,-2.46809 -32.19206,0.10954 -64.38406,0.23201 -96.576122,0.34151 z"
           id="path4527"
           inkscape:connector-curvature="0"
           sodipodi:nodetypes="sssssssss" />
      </g>
      <g
         style="display:inline"
         inkscape:label="Calque 3"
         id="layer3">
        <path
           inkscape:connector-curvature="0"
           id="path4626"
           d="M 122.73202,199.99714 H 148.2013 Z"
           style="fill:none;stroke:#000000;stroke-width:2.06500006;stroke-linecap:round;stroke-linejoin:round;stroke-miterlimit:4;stroke-dasharray:none;stroke-opacity:1" />
        <rect
           y="176.92772"
           x="122.73203"
           height="22.540266"
           width="25.469278"
           id="rect4624"
           style="display:inline;opacity:0.98999999;fill:#666666;stroke:none;stroke-width:1.9874568;stroke-linecap:round;stroke-linejoin:round;stroke-miterlimit:4;stroke-dasharray:none;stroke-opacity:1;paint-order:stroke fill markers" />
      </g>
      <g
         style="display:inline;opacity:0.472"
         inkscape:label="Calque 7"
         id="layer7">
        <rect
           y="176.92772"
           x="122.73203"
           height="22.540266"
           width="25.469278"
           id="rect4624-7"
           style="display:inline;opacity:0.98999999;fill:url(#linearGradient4741);fill-opacity:1;stroke:none;stroke-width:1.9874568;stroke-linecap:round;stroke-linejoin:round;stroke-miterlimit:4;stroke-dasharray:none;stroke-opacity:1;paint-order:stroke fill markers" />
      </g>
      <g
         style="display:inline"
         inkscape:label="Calque 5"
         id="layer5">
        <rect
           y="8.2232809"
           x="7.9654365"
           height="163.86629"
           width="255.00246"
           id="rect4485-5"
           style="display:inline;opacity:0.98999999;fill:#f9f9f9;fill-opacity:1;stroke:#666666;stroke-width:7.06237888;stroke-linecap:round;stroke-linejoin:round;stroke-miterlimit:4;stroke-dasharray:none;stroke-opacity:1;paint-order:stroke fill markers" />
      </g>
      <g
         style="display:inline;opacity:1"
         transform="translate(0,-26.066667)"
         id="layer1-7"
         inkscape:label="Calque 1">
        <rect
           y="30.839874"
           x="4.5159678"
           height="171.07066"
           width="261.9014"
           id="rect4485-3"
           style="opacity:0.98999999;fill:none;stroke:#333333;stroke-width:7.31291819;stroke-linecap:round;stroke-linejoin:round;stroke-miterlimit:4;stroke-dasharray:none;stroke-opacity:1;paint-order:stroke fill markers" />
      </g>
      <g
         style="display:none;opacity:0.60100002"
         inkscape:label="Calque 6"
         id="layer6">
        <rect
           y="8.2232895"
           x="7.9654365"
           height="163.86629"
           width="255.00246"
           id="rect4485"
           style="display:inline;opacity:0.98999999;fill:url(#radialGradient4528);fill-opacity:1;stroke:#666666;stroke-width:7.06237888;stroke-linecap:round;stroke-linejoin:round;stroke-miterlimit:4;stroke-dasharray:none;stroke-opacity:1;paint-order:stroke fill markers" />
      </g>
      <g
         style="display:inline"
         inkscape:label="Calque 11"
         id="layer10" />
    </g>
    <path
       style="display:inline;fill:#ec6630;fill-opacity:1;fill-rule:evenodd;stroke:#ec6630;stroke-width:0.465;stroke-linecap:butt;stroke-linejoin:miter;stroke-miterlimit:4;stroke-dasharray:none;stroke-opacity:1;marker-end:url(#Arrow2Lend)"
       d="m 43.241587,30.298992 65.184403,-10e-7"
       id="path4298"
       inkscape:connector-type="polyline"
       inkscape:connector-curvature="0"
       inkscape:connection-start="#layer1-4"
       inkscape:connection-end="#g3811" />
    <g
       transform="matrix(0.16747073,0,0,0.16747073,-39.109092,-15.533807)"
       id="layer1-4"
       inkscape:label="Capa 1">
      <g
         class="Graphic"
         id="g10"
         style="visibility:visible"
         transform="matrix(0.04230007,0,0,0.04230007,319.39229,59.127567)">
        <g
           id="g12">
          <g
             style="fill:#c7c7c7;stroke:none"
             id="g14">
            <path
               d="m 5903,2361 c 50,82 34,3995 -31,4149 -51,122 -1703,1495 -1789,1531 -1117,-7 -1870,-414 -1995,-629 -48,-270 -7,-4433 38,-4520 40,-76 2153,-833 2227,-851 67,-15 1493,229 1550,320 z"
               id="path16"
               inkscape:connector-curvature="0" />
          </g>
          <g
             style="fill:#000000;stroke:none"
             id="g18">
            <path
               d="m 5881,2374 2,-1 -2,2 c 0,-1 -1,-1 -1,-1 0,-1 0,-1 0,-2 0,0 0,0 0,0 l 7,-3 -2,2 -5,1 5,-1 -2,2 z m 2,-1 v 0 0 l 2,-2 v 0 0 l 2,-2 5,-2 -5,4 5,-4 h 1 l -6,3 v 1 -1 z m 10,-6 h -1 1 -1 l 11,-6 -10,5 z m 11,-4 -11,4 v -1 z m 20,-15 c -2,-3 -4,-6 -7,-9 -2,-3 -5,-5 -8,-7 -5,-4 -12,-8 -20,-12 -7,-4 -15,-7 -24,-11 -9,-4 -19,-7 -30,-11 -21,-8 -47,-16 -75,-24 -29,-8 -61,-16 -95,-25 -136,-34 -313,-72 -494,-106 -181,-35 -364,-66 -511,-90 -73,-11 -138,-21 -189,-27 -25,-3 -47,-6 -65,-8 -9,-1 -17,-1 -24,-2 -4,0 -7,0 -10,-1 h -9 c -3,0 -5,0 -7,1 -2,0 -3,0 -4,0 -2,0 -3,0 -4,1 -2,0 -4,1 -7,2 -2,0 -5,1 -8,2 -3,1 -7,2 -11,3 -4,2 -8,3 -13,5 -10,3 -22,7 -35,12 -13,4 -28,9 -44,15 -33,11 -71,25 -115,40 -43,15 -91,32 -144,51 -209,75 -481,173 -753,274 -271,101 -542,203 -747,285 -51,21 -98,40 -140,57 -43,18 -80,34 -111,48 -16,7 -30,14 -42,20 -13,6 -24,12 -33,17 -5,2 -9,5 -13,7 -4,3 -8,5 -10,7 -4,3 -7,5 -9,7 -5,4 -7,8 -9,11 -1,2 -2,5 -4,9 0,3 -1,6 -1,9 -1,3 -1,7 -2,11 -1,4 -1,8 -2,13 0,9 -1,20 -3,32 0,13 -1,27 -2,42 -2,31 -4,69 -6,111 -2,43 -4,91 -5,144 -7,213 -14,504 -19,835 -11,662 -19,1482 -19,2144 0,308 2,583 5,791 1,52 2,100 3,143 1,43 3,82 4,115 1,34 3,62 4,85 1,12 2,22 3,30 1,5 1,9 1,13 1,3 2,7 2,10 l 1,4 2,4 c 9,15 20,30 33,46 14,16 30,32 48,49 35,32 80,66 135,101 107,70 249,142 423,207 173,65 377,124 608,167 231,43 489,70 769,72 h 6 l 5,-2 c 2,-1 4,-2 8,-4 2,-2 5,-3 8,-6 3,-2 6,-4 10,-6 4,-3 8,-6 12,-9 9,-6 19,-13 30,-22 11,-8 23,-17 37,-28 27,-20 58,-45 93,-73 35,-28 74,-59 116,-93 169,-136 385,-315 600,-497 215,-181 430,-366 593,-512 41,-37 79,-71 113,-103 34,-31 64,-59 89,-84 13,-13 24,-24 34,-35 11,-11 20,-20 28,-29 8,-9 14,-17 19,-23 3,-4 5,-8 7,-10 2,-4 4,-8 6,-11 0,-2 1,-5 2,-8 1,-3 2,-5 3,-9 1,-6 2,-13 3,-22 2,-8 3,-17 4,-28 1,-11 2,-22 3,-35 2,-25 4,-55 7,-89 1,-34 3,-72 5,-113 8,-166 14,-391 19,-648 10,-516 16,-1164 16,-1743 0,-389 -3,-747 -8,-1012 -1,-66 -2,-127 -4,-181 -1,-53 -3,-100 -5,-139 -1,-20 -2,-38 -3,-53 -1,-16 -2,-30 -3,-41 -1,-6 -1,-11 -2,-16 -1,-5 -1,-10 -2,-13 -1,-4 -1,-8 -2,-11 -1,-2 -1,-4 -2,-5 -1,-3 -2,-5 -3,-6 z m -37,21 12,-12 z m -6,9 c 1,3 1,7 2,11 0,4 1,9 1,15 1,11 3,24 4,39 0,15 1,33 2,52 2,39 4,86 6,139 1,53 2,114 4,180 5,264 7,622 7,1011 0,578 -5,1227 -15,1742 -6,257 -12,481 -19,646 -2,42 -4,79 -6,113 -2,33 -4,63 -6,88 -1,12 -2,24 -4,34 0,10 -2,18 -3,26 -1,7 -2,14 -3,18 0,3 -1,4 -1,6 0,1 -1,2 -1,2 0,1 -1,2 -2,4 -1,1 -3,4 -4,6 -5,6 -10,13 -17,21 -7,7 -16,17 -26,27 -10,10 -21,21 -34,34 -25,24 -54,52 -88,83 -33,31 -71,66 -112,102 -163,146 -377,330 -592,512 -215,181 -431,360 -598,495 -42,34 -81,65 -116,93 -35,28 -66,52 -93,73 -13,10 -26,20 -37,28 -10,8 -20,15 -28,21 -4,3 -8,6 -12,8 -3,2 -6,4 -8,6 -2,1 -4,2 -5,3 -276,-2 -528,-29 -755,-71 -228,-42 -429,-100 -600,-164 -169,-64 -308,-134 -413,-202 -51,-33 -94,-66 -128,-97 -17,-15 -31,-30 -43,-44 -10,-12 -19,-23 -26,-34 0,-1 0,-3 0,-4 -1,-3 -1,-7 -1,-11 -1,-8 -2,-18 -3,-28 -2,-23 -3,-51 -5,-84 -1,-33 -2,-71 -3,-115 -1,-42 -2,-90 -3,-142 -3,-208 -5,-482 -5,-790 0,-662 7,-1481 18,-2143 6,-330 12,-622 19,-834 2,-53 4,-101 6,-144 2,-42 3,-79 5,-109 1,-16 2,-30 3,-42 1,-12 2,-22 3,-31 0,-4 1,-8 1,-11 1,-4 1,-6 2,-9 0,-1 0,-2 0,-2 0,-1 1,-1 2,-2 2,-1 4,-3 7,-5 4,-1 7,-4 11,-6 9,-5 19,-10 31,-16 12,-6 26,-12 41,-19 31,-14 67,-29 109,-47 42,-17 89,-37 140,-57 205,-82 475,-184 746,-284 271,-101 543,-200 752,-274 52,-19 101,-36 144,-51 43,-16 82,-29 114,-40 17,-6 31,-11 44,-16 13,-4 25,-8 35,-11 4,-2 9,-3 13,-4 4,-2 7,-3 10,-4 3,-1 5,-1 8,-2 l 3,-1 v 0 0 0 0 0 0 l -2,-8 1,8 h 1 c 1,0 3,0 4,0 2,0 4,0 7,0 2,0 5,0 8,1 7,0 14,1 23,2 17,1 39,4 64,7 50,6 114,16 187,27 147,23 329,55 509,89 180,35 357,72 492,106 34,9 65,17 92,25 28,8 53,15 73,23 10,3 20,7 28,10 7,3 15,6 20,9 5,3 10,5 13,8 0,0 1,0 1,1 0,1 1,3 1,4 z M 4075,8017 c 1,0 1,-1 2,-1 2,0 4,0 6,0 v 14 l -8,-13 8,13 v 11 l -10,-23 c 0,0 1,-1 2,-1 z M 2110,7400 c 1,1 1,3 2,4 1,1 1,3 1,4 l -25,4 21,-11 1,-1 -1,1 1,-1 c 0,0 0,0 0,0 h 2 z m 39,-4498 c 0,1 0,2 0,3 -1,0 -1,1 -2,1 l -5,-6 -17,-4 17,4 -2,-1 4,2 z m -7,-2 v 0 l 2,1 v 0 z m -16,-8 14,7 v 0 z m 14,7 v 0 l -10,-11 z m 2217,-841 -2,-17 z m -4,-17 4,17 v 1 z"
               id="path20"
               inkscape:connector-curvature="0" />
          </g>
          <g
             style="fill:#ffffff;fill-opacity:0.54117647;stroke:#ffffff;stroke-opacity:0.54117647"
             id="g22">
            <path
               d="m 5822,2442 -52,22 -52,23 -52,23 -53,25 -53,25 -53,26 -53,26 -54,27 -54,27 -54,28 -55,28 -54,29 -55,29 -55,29 -111,60 -112,60 -112,60 -113,61 -114,60 -114,60 -114,59 -57,29 -57,29 -58,28 -57,28 -27,-6 -28,-7 -56,-13 -58,-14 -59,-13 -60,-14 -61,-14 -61,-14 -63,-14 -62,-14 -63,-15 -127,-28 -127,-28 -64,-14 -63,-14 -62,-13 -62,-13 -61,-13 -60,-13 -60,-13 -58,-12 -57,-12 -28,-5 -28,-6 -27,-5 -27,-6 -27,-5 -26,-5 -26,-5 -25,-6 -25,-4 -24,-5 -24,-5 -24,-4 -23,-4 -22,-5 -22,-4 -21,-3 -21,-4 -20,-4 52,16 52,16 53,16 54,15 55,16 55,15 57,16 56,15 57,16 58,15 116,31 117,30 118,31 118,31 117,30 116,31 58,15 57,16 57,15 56,16 55,15 55,16 54,15 53,16 52,16 52,16 1,60 2,61 1,61 1,63 1,64 2,64 1,65 1,66 1,67 1,67 1,68 v 69 l 1,69 1,70 1,70 v 71 l 1,71 v 72 l 1,72 1,73 1,146 1,147 v 149 l 1,149 2,299 1,300 1,149 1,148 1,147 1,146 1,73 v 72 l 1,72 1,71 v 71 l 1,71 1,69 1,70 v 68 l 1,68 1,67 1,67 1,66 1,65 1,65 2,63 1,63 1,62 2,61 1,60 1,-61 1,-61 v -63 l 1,-63 1,-64 1,-65 1,-66 1,-67 1,-67 1,-68 1,-69 2,-69 1,-70 1,-71 1,-71 1,-72 1,-72 2,-73 1,-73 1,-73 3,-148 3,-149 2,-151 3,-151 6,-303 5,-303 3,-151 3,-150 2,-149 3,-149 1,-73 2,-73 1,-73 1,-72 1,-71 1,-72 1,-70 2,-70 1,-70 1,-68 1,-68 1,-68 1,-66 1,-66 1,-65 1,-64 1,-64 v -62 l 1,-62 1,-60 110,-59 109,-59 109,-57 109,-58 108,-57 107,-58 107,-57 107,-58 105,-58 105,-58 104,-60 103,-60 51,-30 50,-31 51,-31 50,-31 50,-31 50,-32 49,-32 z"
               id="path24"
               inkscape:connector-curvature="0" />
          </g>
          <g
             style="fill:#ffffff;stroke:none"
             id="g26" />
          <g
             style="fill:none;stroke:none"
             id="g28">
            <path
               d="m 5822,2442 c -549,232 -1156,606 -1768,901 -580,-138 -1417,-322 -1839,-396 543,169 1257,327 1800,496 32,1271 16,3196 48,4467 16,-1282 59,-3238 75,-4519 586,-317 1161,-601 1684,-949 z"
               id="path30"
               inkscape:connector-curvature="0" />
          </g>
          <g
             style="fill:#000000;fill-opacity:0.16078431;stroke:#ffffff;stroke-opacity:0.16078431"
             id="g32">
            <path
               d="m 2420,6628 10,14 10,13 11,13 12,13 12,12 12,12 14,12 13,12 14,12 15,11 15,11 16,11 15,11 17,10 16,10 17,11 18,9 18,10 18,9 18,8 19,9 19,8 19,8 19,8 40,15 40,14 41,12 41,11 42,10 41,9 42,8 41,6 41,6 41,3 21,2 20,1 19,1 h 20 20 19 l 19,-1 19,-1 18,-1 19,-1 17,-2 18,-3 17,-2 17,-3 17,-4 16,-4 15,-4 15,-4 15,-5 15,-5 -2,-1 h -1 l -5,-2 -6,-1 -7,-2 -8,-2 -10,-3 -10,-3 -12,-3 -13,-4 -14,-3 -15,-4 -16,-5 -16,-4 -18,-5 -18,-5 -19,-5 -20,-6 -20,-5 -21,-6 -22,-6 -22,-6 -22,-6 -23,-7 -24,-6 -48,-13 -49,-14 -50,-14 -50,-13 -50,-15 -50,-13 -49,-14 -49,-13 -23,-7 -24,-6 -23,-7 -22,-6 -22,-6 -21,-6 -21,-6 -20,-5 -19,-6 -19,-5 -18,-5 -17,-5 -16,-4 -15,-5 -15,-4 -13,-4 -12,-3 -12,-3 -10,-3 -9,-3 -7,-2 -7,-2 -5,-2 h -2 z"
               id="path34"
               inkscape:connector-curvature="0" />
          </g>
          <g
             style="fill:#000000;stroke:none"
             id="g36" />
          <g
             style="fill:none;stroke:none"
             id="g38">
            <path
               d="m 2420,6628 c 201,289 833,431 1133,315 -53,-14 -1066,-293 -1133,-315 z"
               id="path40"
               inkscape:connector-curvature="0" />
          </g>
          <g
             style="fill:#ffffff;fill-opacity:0.38823529;stroke:#ffffff;stroke-opacity:0.38823529"
             id="g42">
            <path
               d="m 3454,6093 -936,-361 -9,4 -8,4 -8,4 -6,5 -6,6 -6,6 -5,7 -5,6 -4,7 -4,7 -3,7 -3,8 -3,8 -2,7 -3,15 -2,15 -2,14 v 6 7 5 6 5 4 4 l 1,4 v 2 2 1 1 l 146,51 v 0 l 1,1 1,1 1,1 1,2 2,2 1,3 3,3 2,3 3,4 3,4 3,4 4,5 4,4 4,6 5,4 10,12 10,11 13,12 13,12 14,13 15,12 17,13 17,12 19,12 19,11 21,11 22,10 11,4 11,5 12,4 12,4 13,3 12,3 13,3 13,3 13,2 13,1 14,2 14,1 h 14 15 15 l 15,-1 15,-2 15,-2 16,-2 16,-3 16,-4 16,-4 17,-5 17,-6 v 0 h 1 v 0 l 2,1 h 3 l 6,1 6,1 7,1 8,1 9,1 10,1 11,1 12,1 12,1 h 12 l 13,1 h 26 l 14,-1 13,-1 14,-1 13,-2 13,-2 12,-3 12,-3 12,-3 10,-5 11,-5 9,-6 8,-6 8,-8 3,-4 3,-4 3,-4 2,-4 2,-5 z"
               id="path44"
               inkscape:connector-curvature="0" />
          </g>
          <g
             style="fill:#ffffff;stroke:none"
             id="g46" />
          <g
             style="fill:none;stroke:none"
             id="g48">
            <path
               d="m 3454,6093 -936,-361 c -97,34 -78,177 -78,177 l 146,51 c 0,0 204,319 566,194 0,0 269,48 302,-61 z"
               id="path50"
               inkscape:connector-curvature="0" />
          </g>
          <g
             style="fill:#606060;stroke:none"
             id="g52">
            <path
               d="m 3446,5971 c -311,-81 -622,-161 -933,-242 -12,44 -13,107 6,140 47,23 142,41 189,64 136,131 255,142 472,124 84,17 168,31 251,48 26,-51 33,-72 15,-134 z"
               id="path54"
               inkscape:connector-curvature="0" />
          </g>
          <g
             style="fill:none;stroke:none"
             id="g56">
            <path
               d="m 3446,5971 c -311,-81 -622,-161 -933,-242 -12,44 -13,107 6,140 47,23 142,41 189,64 136,131 255,142 472,124 84,17 168,31 251,48 26,-51 33,-72 15,-134 z"
               id="path58"
               inkscape:connector-curvature="0" />
          </g>
          <g
             style="fill:#ffffff;fill-opacity:0.4;stroke:#ffffff;stroke-opacity:0.4"
             id="g60">
            <path
               d="m 5856,2414 -1813,1017 7,4549 1775,-1494 z"
               id="path62"
               inkscape:connector-curvature="0" />
          </g>
          <g
             style="fill:#ffffff;stroke:none"
             id="g64" />
          <g
             style="fill:none;stroke:none"
             id="g66">
            <path
               d="m 5856,2414 -1813,1017 7,4549 1775,-1494 z"
               id="path68"
               inkscape:connector-curvature="0" />
          </g>
          <g
             style="fill:#000000;fill-opacity:0.16078431;stroke:#ffffff;stroke-opacity:0.16078431"
             id="g70">
            <path
               d="m 2525,6916 10,13 11,12 10,13 11,11 11,12 11,11 12,11 12,10 12,10 12,10 13,10 12,9 13,9 13,8 27,17 28,15 28,14 28,13 29,11 29,11 30,9 30,8 29,8 30,6 30,5 30,4 30,3 30,2 29,2 h 29 l 29,-1 27,-2 28,-2 27,-3 26,-5 25,-5 24,-6 24,-6 22,-8 -2,-1 h -4 l -4,-2 -5,-1 -6,-2 -8,-2 -8,-2 -9,-2 -10,-3 -10,-3 -11,-3 -12,-3 -13,-4 -13,-3 -14,-4 -15,-4 -15,-4 -15,-5 -16,-4 -16,-5 -17,-4 -18,-5 -35,-10 -36,-10 -38,-10 -38,-10 -38,-11 -76,-21 -37,-10 -37,-11 -36,-10 -17,-4 -17,-5 -17,-5 -16,-4 -16,-5 -15,-4 -15,-4 -14,-4 -14,-4 -13,-4 -12,-3 -11,-3 -12,-3 -10,-3 -9,-3 -8,-2 -8,-3 -7,-1 -6,-2 -5,-2 -4,-1 z"
               id="path72"
               inkscape:connector-curvature="0" />
          </g>
          <g
             style="fill:#000000;stroke:none"
             id="g74" />
          <g
             style="fill:none;stroke:none"
             id="g76">
            <path
               d="m 2525,6916 c 209,276 627,323 861,239 -39,-10 -810,-222 -861,-239 z"
               id="path78"
               inkscape:connector-curvature="0" />
          </g>
          <g
             style="fill:#000000;fill-opacity:0.16078431;stroke:#ffffff;stroke-opacity:0.16078431"
             id="g80">
            <path
               d="m 2680,7199 12,15 12,14 13,14 14,12 14,13 14,11 15,11 16,11 15,9 17,9 16,9 17,7 18,7 17,7 18,5 18,5 18,5 19,3 18,4 19,2 18,2 19,1 h 19 19 l 18,-1 19,-2 18,-2 19,-3 18,-4 18,-4 18,-5 17,-6 h -1 l -2,-1 h -3 l -4,-1 -3,-1 -5,-2 -5,-1 -6,-2 -6,-1 -6,-2 -7,-2 -8,-2 -8,-2 -8,-3 -9,-2 -9,-2 -19,-6 -20,-5 -22,-6 -22,-6 -23,-6 -23,-7 -48,-13 -48,-13 -23,-7 -23,-6 -23,-6 -21,-6 -21,-6 -19,-6 -9,-2 -9,-3 -9,-2 -8,-2 -8,-2 -7,-2 -7,-2 -6,-2 -6,-2 -5,-2 -5,-1 -5,-1 -3,-1 -3,-1 -3,-1 z"
               id="path82"
               inkscape:connector-curvature="0" />
          </g>
          <g
             style="fill:#000000;stroke:none"
             id="g84" />
          <g
             style="fill:none;stroke:none"
             id="g86">
            <path
               d="m 2680,7199 c 121,163 355,213 540,149 -25,-6 -507,-139 -540,-149 z"
               id="path88"
               inkscape:connector-curvature="0" />
          </g>
          <g
             style="fill:#fcfcfc;fill-opacity:0.43921569;stroke:#ffffff;stroke-opacity:0.43921569"
             id="g90">
            <path
               d="m 2356,3259 -92,13 -17,2173 1425,399 35,-116 -1369,-365 z"
               id="path92"
               inkscape:connector-curvature="0" />
          </g>
          <g
             style="fill:#fcfcfc;stroke:none"
             id="g94" />
          <g
             style="fill:none;stroke:none"
             id="g96">
            <path
               d="m 2356,3259 -92,13 -17,2173 1425,399 35,-116 -1369,-365 z"
               id="path98"
               inkscape:connector-curvature="0" />
          </g>
          <g
             style="fill:#000000;fill-opacity:0.23137255;stroke:#ffffff;stroke-opacity:0.23137255"
             id="g100">
            <path
               d="m 3700,4065 -2,61 -1340,-386 z"
               id="path102"
               inkscape:connector-curvature="0" />
          </g>
          <g
             style="fill:#000000;stroke:none"
             id="g104" />
          <g
             style="fill:#000000;fill-opacity:0.23137255;stroke:#ffffff;stroke-opacity:0.23137255"
             id="g106">
            <path
               d="m 3720,4507 -3,61 -1339,-386 z"
               id="path108"
               inkscape:connector-curvature="0" />
          </g>
          <g
             style="fill:#000000;stroke:none"
             id="g110" />
          <g
             style="fill:#000000;fill-opacity:0.23137255;stroke:#ffffff;stroke-opacity:0.23137255"
             id="g112">
            <path
               d="m 3700,4916 -2,61 -1340,-386 z"
               id="path114"
               inkscape:connector-curvature="0" />
          </g>
          <g
             style="fill:#000000;stroke:none"
             id="g116" />
          <g
             style="fill:#000000;fill-opacity:0.23137255;stroke:#ffffff;stroke-opacity:0.23137255"
             id="g118">
            <path
               d="m 3700,5318 -2,61 -1340,-387 z"
               id="path120"
               inkscape:connector-curvature="0" />
          </g>
          <g
             style="fill:#000000;stroke:none"
             id="g122" />
          <g
             style="fill:#9e9e9e;stroke:none"
             id="g124">
            <path
               d="m 2361,3309 1332,333 -11,2197 h 11 11 l 11,-2205 v -9 l -8,-2 -1341,-335 -2,11 z m 1340,335 -8,-2 v -8 h 11 z"
               id="path126"
               inkscape:connector-curvature="0" />
          </g>
        </g>
      </g>
      <g
         id="g3666"
         transform="matrix(0.30605905,0,0,0.30605905,441.50745,226.32395)">
        <path
           inkscape:connector-curvature="0"
           id="path6352"
           d="m 249.19565,337.46543 c -44.23386,0 -80.2119,22.66922 -81.09375,50.84375 -26.12274,8.74355 -44.125,27.1258 -44.125,48.40625 0,13.09542 6.79514,25.10348 18.125,34.4375 -0.82581,2.73109 -1.25,5.51648 -1.25,8.375 0,20.01042 21.05972,37.31055 51.75,45.75 10.74924,17.65272 37.53472,30.15625 68.90625,30.15625 26.44185,0 49.61246,-8.8873 62.6875,-22.25 0.005,-0.005 0.0261,0.005 0.0312,0 2.00078,0.12506 4.01765,0.1875 6.0625,0.1875 38.69612,0 70.0625,-22.94451 70.0625,-51.25 0,-4.78852 -0.91461,-9.41589 -2.59375,-13.8125 11.43266,-9.87731 18.15625,-21.88816 18.15625,-34.84375 0,-17.39153 -12.11766,-33.04676 -31.5,-44.15625 -10.51159,-25.90671 -34.852,-44.0625 -63.21875,-44.0625 -7.46767,0 -14.64273,1.26792 -21.375,3.59375 -13.87939,-7.11485 -31.45906,-11.375 -50.625,-11.375 z"
           style="color:#000000;display:inline;overflow:visible;visibility:visible;opacity:0.31390136;fill:#000000;stroke:#000000;stroke-width:12.5;stroke-miterlimit:4;stroke-dasharray:none;stroke-opacity:1;marker:none;filter:url(#filter6456);enable-background:accumulate" />
        <path
           style="color:#000000;display:inline;overflow:visible;visibility:visible;fill:url(#radialGradient6368);fill-opacity:1;stroke:url(#linearGradient6474);stroke-width:1.25;stroke-linecap:round;stroke-linejoin:miter;stroke-miterlimit:4;stroke-dashoffset:0;stroke-opacity:1;marker:none;enable-background:accumulate"
           d="m 247.19565,333.46543 c -44.23386,0 -80.2119,22.66922 -81.09375,50.84375 -26.12274,8.74355 -44.125,27.1258 -44.125,48.40625 0,13.09542 6.79514,25.10348 18.125,34.4375 -0.82581,2.73109 -1.25,5.51648 -1.25,8.375 0,20.01042 21.05972,37.31055 51.75,45.75 10.74924,17.65272 37.53472,30.15625 68.90625,30.15625 26.44185,0 49.61246,-8.8873 62.6875,-22.25 0.005,-0.005 0.0261,0.005 0.0312,0 2.00078,0.12506 4.01765,0.1875 6.0625,0.1875 38.69612,0 70.0625,-22.94451 70.0625,-51.25 0,-4.78852 -0.91461,-9.41589 -2.59375,-13.8125 11.43266,-9.87731 18.15625,-21.88816 18.15625,-34.84375 0,-17.39153 -12.11766,-33.04676 -31.5,-44.15625 -10.51159,-25.90671 -34.852,-44.0625 -63.21875,-44.0625 -7.46767,0 -14.64273,1.26792 -21.375,3.59375 -13.87939,-7.11485 -31.45906,-11.375 -50.625,-11.375 z"
           id="path6325"
           inkscape:connector-curvature="0" />
        <ellipse
           transform="matrix(0.7567091,0,0,0.7567091,172.63226,-24.124239)"
           id="path6394"
           style="color:#000000;display:inline;overflow:visible;visibility:visible;opacity:0.77578472;fill:url(#radialGradient6396);fill-opacity:1;fill-rule:nonzero;stroke:none;stroke-width:12.5;marker:none;filter:url(#filter6390);enable-background:accumulate"
           cx="145.32111"
           cy="694.81653"
           rx="63.57798"
           ry="53.846657" />
        <ellipse
           style="color:#000000;display:inline;overflow:visible;visibility:visible;opacity:0.77578472;fill:url(#radialGradient6386);fill-opacity:1;fill-rule:nonzero;stroke:none;stroke-width:12.5;marker:none;filter:url(#filter6488);enable-background:accumulate"
           id="path6370"
           transform="translate(58.634192,-227.68858)"
           cx="145.32111"
           cy="694.81653"
           rx="63.57798"
           ry="53.846657" />
        <ellipse
           transform="matrix(0.97167041,0,0,0.94561733,114.38611,-204.10816)"
           id="path6402"
           style="color:#000000;display:inline;overflow:visible;visibility:visible;opacity:0.77578472;fill:url(#radialGradient6404);fill-opacity:1;fill-rule:nonzero;stroke:none;stroke-width:12.5;marker:none;filter:url(#filter6524);enable-background:accumulate"
           cx="145.32111"
           cy="694.81653"
           rx="63.57798"
           ry="53.846657" />
        <ellipse
           style="color:#000000;display:inline;overflow:visible;visibility:visible;opacity:0.77578472;fill:url(#radialGradient6416);fill-opacity:1;fill-rule:nonzero;stroke:none;stroke-width:12.5;marker:none;filter:url(#filter6496);enable-background:accumulate"
           id="path6414"
           transform="matrix(0.97167041,0,0,0.94561733,191.67236,-183.25314)"
           cx="145.32111"
           cy="694.81653"
           rx="63.57798"
           ry="53.846657" />
        <ellipse
           style="color:#000000;display:inline;overflow:visible;visibility:visible;opacity:0.47533629;fill:url(#radialGradient6408);fill-opacity:1;fill-rule:nonzero;stroke:none;stroke-width:12.5;marker:none;filter:url(#filter6476);enable-background:accumulate"
           id="path6406"
           transform="matrix(0.93796337,0,0,0.87005688,48.802145,-169.17141)"
           cx="145.32111"
           cy="694.81653"
           rx="63.57798"
           ry="53.846657" />
        <ellipse
           style="color:#000000;display:inline;overflow:visible;visibility:visible;opacity:0.77578472;fill:url(#radialGradient6400);fill-opacity:1;fill-rule:nonzero;stroke:none;stroke-width:12.5;marker:none;filter:url(#filter6512);enable-background:accumulate"
           id="path6398"
           transform="matrix(0.7567091,0,0,0.7567091,171.65913,-99.055432)"
           cx="145.32111"
           cy="694.81653"
           rx="63.57798"
           ry="53.846657" />
        <ellipse
           transform="matrix(0.60916125,0,0,0.53345392,234.88034,10.977493)"
           id="path6410"
           style="color:#000000;display:inline;overflow:visible;visibility:visible;opacity:0.26905829;fill:url(#radialGradient6412);fill-opacity:1;fill-rule:nonzero;stroke:none;stroke-width:12.5;marker:none;filter:url(#filter6520);enable-background:accumulate"
           cx="145.32111"
           cy="694.81653"
           rx="63.57798"
           ry="53.846657" />
        <ellipse
           transform="matrix(0.89850231,0,0,0.88045185,221.23946,-177.67334)"
           id="path6434"
           style="color:#000000;display:inline;overflow:visible;visibility:visible;opacity:0.52017942;fill:url(#radialGradient6436);fill-opacity:1;fill-rule:nonzero;stroke:none;stroke-width:12.5;marker:none;filter:url(#filter6528);enable-background:accumulate"
           cx="145.32111"
           cy="694.81653"
           rx="63.57798"
           ry="53.846657" />
        <ellipse
           transform="matrix(1.1203973,0,0,0.83453712,79.417336,-198.05407)"
           id="path6438"
           style="color:#000000;display:inline;overflow:visible;visibility:visible;opacity:0.5515695;fill:url(#radialGradient3825);fill-opacity:1;fill-rule:nonzero;stroke:none;stroke-width:12.5;marker:none;filter:url(#filter6504);enable-background:accumulate"
           cx="145.32111"
           cy="694.81653"
           rx="63.57798"
           ry="53.846657" />
      </g>
    </g>
    <g
       id="g3677"
       transform="matrix(0.26458333,0,0,0.26458333,72.294477,24.271997)">
      <g
         id="g3611">
	<path
   id="path3589"
   d="M 36.985,0 H 7.963 C 7.155,0 6.5,0.655 6.5,1.926 V 55 c 0,0.345 0.655,1 1.463,1 H 48.037 C 48.845,56 49.5,55.345 49.5,55 V 12.978 c 0,-0.696 -0.093,-0.92 -0.257,-1.085 L 37.607,0.257 C 37.442,0.093 37.218,0 36.985,0 Z"
   style="fill:#e9e9e0"
   inkscape:connector-curvature="0" />

	<polygon
   id="polygon3591"
   points="49.349,12 37.5,0.151 37.5,12 "
   style="fill:#d9d7ca" />

	<path
   id="path3593"
   d="M 48.037,56 H 7.963 C 7.155,56 6.5,55.345 6.5,54.537 V 39 h 43 V 54.537 C 49.5,55.345 48.845,56 48.037,56 Z"
   style="fill:#ec6630"
   inkscape:connector-curvature="0" />

	<g
   id="g3603">
		<path
   id="path3595"
   d="M 17.455,42.924 V 53 H 15.814 V 48.461 H 11.453 V 53 H 9.785 V 42.924 h 1.668 v 4.416 h 4.361 v -4.416 z"
   style="fill:#ffffff"
   inkscape:connector-curvature="0" />

		<path
   id="path3597"
   d="m 27.107,42.924 v 1.121 H 24.1 V 53 h -1.654 v -8.955 h -3.008 v -1.121 z"
   style="fill:#ffffff"
   inkscape:connector-curvature="0" />

		<path
   id="path3599"
   d="m 36.705,42.924 h 1.668 V 53 h -1.668 v -6.932 l -2.256,5.605 H 33 L 30.73,46.068 V 53 H 29.062 V 42.924 h 1.668 l 2.994,6.891 z"
   style="fill:#ffffff"
   inkscape:connector-curvature="0" />

		<path
   id="path3601"
   d="m 42.57,42.924 v 8.832 h 4.635 V 53 H 40.902 V 42.924 Z"
   style="fill:#ffffff"
   inkscape:connector-curvature="0" />

	</g>

	<g
   id="g3609">
		<path
   id="path3605"
   d="m 23.207,16.293 c -0.391,-0.391 -1.023,-0.391 -1.414,0 l -6,6 c -0.391,0.391 -0.391,1.023 0,1.414 l 6,6 C 21.988,29.902 22.244,30 22.5,30 c 0.256,0 0.512,-0.098 0.707,-0.293 0.391,-0.391 0.391,-1.023 0,-1.414 L 17.914,23 23.207,17.707 c 0.391,-0.391 0.391,-1.023 0,-1.414 z"
   style="fill:#ec6630"
   inkscape:connector-curvature="0" />

		<path
   id="path3607"
   d="m 41.207,22.293 -6,-6 c -0.391,-0.391 -1.023,-0.391 -1.414,0 -0.391,0.391 -0.391,1.023 0,1.414 L 39.086,23 33.793,28.293 c -0.391,0.391 -0.391,1.023 0,1.414 0.195,0.195 0.451,0.293 0.707,0.293 0.256,0 0.512,-0.098 0.707,-0.293 l 6,-6 c 0.391,-0.391 0.391,-1.023 0,-1.414 z"
   style="fill:#ec6630"
   inkscape:connector-curvature="0" />

	</g>

</g>
      <g
         id="g3613">
</g>
      <g
         id="g3615">
</g>
      <g
         id="g3617">
</g>
      <g
         id="g3619">
</g>
      <g
         id="g3621">
</g>
      <g
         id="g3623">
</g>
      <g
         id="g3625">
</g>
      <g
         id="g3627">
</g>
      <g
         id="g3629">
</g>
      <g
         id="g3631">
</g>
      <g
         id="g3633">
</g>
      <g
         id="g3635">
</g>
      <g
         id="g3637">
</g>
      <g
         id="g3639">
</g>
      <g
         id="g3641">
</g>
    </g>
  </g>
</svg>
